<svg preserveAspectRatio="none" width="100%" height="100%" overflow="visible" style="display: block;" viewBox="0 0 106 35" fill="none" xmlns="http://www.w3.org/2000/svg">
<g id="Group 466">
<path id="Vector" d="M26.0629 12.2732H13.6948V15.9432H22.467C22.0324 21.0801 17.752 23.285 13.7096 23.285C12.429 23.2906 11.1601 23.0411 9.97701 22.5509C8.79391 22.0608 7.72031 21.3399 6.81888 20.4303C5.91745 19.5206 5.20626 18.4406 4.72683 17.2531C4.2474 16.0656 4.00934 14.7945 4.02654 13.514C4.02654 7.95825 8.32771 3.68079 13.7215 3.68079C17.8824 3.68079 20.3342 6.33321 20.3342 6.33321L22.9027 3.6719C22.9027 3.6719 19.6032 0 13.5871 0C5.92621 0 0 6.46558 0 13.4488C0 20.2918 5.57453 26.9648 13.7807 26.9648C20.9991 26.9648 26.2832 22.0195 26.2832 14.7073C26.2832 13.1643 26.0589 12.2732 26.0589 12.2732H26.0629Z" fill="var(--fill-0, white)"/>
<path id="Vector_2" d="M36.1954 9.6147C31.1198 9.6147 27.4824 13.583 27.4824 18.2091C27.4824 22.9054 31.0091 26.9468 36.2547 26.9468C41.0024 26.9468 44.8916 23.3184 44.8916 18.3099C44.8916 12.5803 40.3672 9.61371 36.1954 9.61371V9.6147ZM36.2448 13.0189C38.7402 13.0189 41.1051 15.0371 41.1051 18.2882C41.1051 21.4691 38.75 23.5456 36.233 23.5456C33.4669 23.5456 31.2936 21.3308 31.2936 18.2625C31.2936 15.2594 33.4472 13.0189 36.2527 13.0189H36.2448Z" fill="var(--fill-0, white)"/>
<path id="Vector_3" d="M55.1436 9.6147C50.068 9.6147 46.4307 13.583 46.4307 18.2091C46.4307 22.9054 49.9573 26.9468 55.2029 26.9468C59.9506 26.9468 63.8398 23.3184 63.8398 18.3099C63.8398 12.5803 59.3154 9.61371 55.1436 9.61371V9.6147ZM55.193 13.0189C57.6884 13.0189 60.0533 15.0371 60.0533 18.2882C60.0533 21.4691 57.6983 23.5456 55.1812 23.5456C52.4152 23.5456 50.2419 21.3308 50.2419 18.2625C50.2419 15.2594 52.3954 13.0189 55.2009 13.0189H55.193Z" fill="var(--fill-0, white)"/>
<path id="Vector_4" d="M73.7284 9.62455C69.0697 9.62455 65.4086 13.7044 65.4086 18.2842C65.4086 23.5001 69.6535 26.9596 73.6474 26.9596C76.1171 26.9596 77.431 25.9787 78.3892 24.8535V26.5625C78.3892 29.5528 76.5735 31.3438 73.8332 31.3438C71.1857 31.3438 69.858 29.3749 69.3878 28.2587L66.0567 29.6417C67.2382 32.141 69.6169 34.746 73.8608 34.746C78.5038 34.746 82.0226 31.8288 82.0226 25.71V10.1452H78.403V11.6131C77.2867 10.4079 75.7575 9.62455 73.7304 9.62455H73.7284ZM74.0643 13.0228C76.3483 13.0228 78.6935 14.9729 78.6935 18.3029C78.6935 21.6884 76.3522 23.5535 74.0139 23.5535C71.5304 23.5535 69.2198 21.5382 69.2198 18.3346C69.2198 15.0074 71.6203 13.0228 74.0643 13.0228Z" fill="var(--fill-0, white)"/>
<path id="Vector_5" d="M98.1998 9.60368C93.8058 9.60368 90.1161 13.1007 90.1161 18.2574C90.1161 23.7163 94.2286 26.9536 98.6118 26.9536C102.279 26.9536 104.539 24.9482 105.873 23.1503L102.876 21.1568C102.099 22.362 100.799 23.5425 98.6305 23.5425C96.1944 23.5425 95.0742 22.2089 94.3797 20.9147L106 16.094L105.407 14.6813C104.285 11.9153 101.665 9.60368 98.1998 9.60368ZM98.351 12.9367C99.9345 12.9367 101.074 13.7784 101.558 14.788L93.7969 18.0312C93.461 15.52 95.8418 12.9367 98.3411 12.9367H98.351Z" fill="var(--fill-0, white)"/>
<path id="Vector_6" d="M84.5672 26.44H88.3844V0.896734H84.5672V26.44Z" fill="var(--fill-0, white)"/>
</g>
</svg>
