<svg preserveAspectRatio="none" width="100%" height="100%" overflow="visible" style="display: block;" viewBox="0 0 25 34" fill="none" xmlns="http://www.w3.org/2000/svg">
<g id="Layer_1">
<path id="Vector" fill-rule="evenodd" clip-rule="evenodd" d="M9.82597 8.38317C9.45397 4.35263 9.24399 2.07862 9.19603 1.56115C9.01586 -0.396624 5.35028 -0.216946 3.98022 0.503205C-1.8098 3.54192 -0.16106 12.1751 1.94652 17.3886C5.94911 25.9686 10.3885 30.9809 15.2634 32.4227C19.0794 33.9305 24.0178 32.897 24.3341 27.6475C24.3768 26.9303 24.312 26.3495 24.1396 25.9039C23.8441 25.2355 21.708 23.9792 17.7301 22.1379C16.9588 21.8317 16.0593 22.1796 15.0288 23.1815C14.8746 23.3338 14.7203 23.4661 14.5661 23.5782C13.8104 24.1215 13.3853 24.1661 12.6892 23.5724C10.5674 21.7599 7.35157 15.3633 6.67497 13.4443C6.50647 12.6768 6.80848 12.0831 7.5784 11.6619C9.06901 10.9274 9.8182 9.83353 9.82597 8.38317Z" fill="var(--fill-0, white)"/>
</g>
</svg>
