<svg preserveAspectRatio="none" width="100%" height="100%" overflow="visible" style="display: block;" viewBox="0 0 25 25" fill="none" xmlns="http://www.w3.org/2000/svg">
<g id="Group">
<path id="Vector" d="M12.3434 0C5.53781 0 0 5.53781 0 12.3461C0 19.1545 5.53781 24.6895 12.3434 24.6895C19.1489 24.6895 24.6895 19.1517 24.6895 12.3461C24.6895 5.54057 19.1517 0 12.3434 0ZM12.3434 23.1759C6.37193 23.1759 1.51081 18.3176 1.51081 12.3434C1.51081 6.36917 6.37193 1.51358 12.3434 1.51358C18.3148 1.51358 23.1759 6.37193 23.1759 12.3461C23.1759 18.3203 18.3176 23.1787 12.3434 23.1787V23.1759Z" fill="var(--fill-0, white)"/>
<path id="Vector_2" d="M12.2991 13.2357C11.9014 13.2357 11.5782 12.9125 11.5782 12.5148V4.58508C11.5782 4.18735 11.9014 3.8642 12.2991 3.8642C12.6968 3.8642 13.02 4.18735 13.02 4.58508V12.5148C13.02 12.9125 12.6968 13.2357 12.2991 13.2357Z" fill="var(--fill-0, white)"/>
<path id="Vector_3" d="M20.9525 12.512C20.9525 12.9097 20.6293 13.2329 20.2316 13.2329H12.3019C11.9042 13.2329 11.581 12.9097 11.581 12.512C11.581 12.1143 11.9042 11.7911 12.3019 11.7911H20.2316C20.6293 11.7911 20.9525 12.1143 20.9525 12.512Z" fill="var(--fill-0, white)"/>
</g>
</svg>
