<svg preserveAspectRatio="none" width="100%" height="100%" overflow="visible" style="display: block;" viewBox="0 0 106 21" fill="none" xmlns="http://www.w3.org/2000/svg">
<g id="Group 467">
<path id="Star 1" d="M10.6 0L12.9798 7.02552H20.6812L14.4507 11.3675L16.8305 18.3931L10.6 14.051L4.36948 18.3931L6.74932 11.3675L0.518801 7.02552H8.22015L10.6 0Z" fill="var(--fill-0, white)"/>
<path id="Star 5" d="M95.4 0L97.7798 7.02552H105.481L99.2507 11.3675L101.631 18.3931L95.4 14.051L89.1695 18.3931L91.5493 11.3675L85.3188 7.02552H93.0201L95.4 0Z" fill="var(--fill-0, white)"/>
<path id="Star 4" d="M74.2 0L76.5798 7.02552H84.2812L78.0507 11.3675L80.4305 18.3931L74.2 14.051L67.9695 18.3931L70.3493 11.3675L64.1188 7.02552H71.8201L74.2 0Z" fill="var(--fill-0, white)"/>
<path id="Star 3" d="M53 0L55.3799 7.02552H63.0812L56.8507 11.3675L59.2305 18.3931L53 14.051L46.7695 18.3931L49.1493 11.3675L42.9188 7.02552H50.6202L53 0Z" fill="var(--fill-0, white)"/>
<path id="Star 2" d="M31.8 0L34.1799 7.02552H41.8812L35.6507 11.3675L38.0305 18.3931L31.8 14.051L25.5695 18.3931L27.9493 11.3675L21.7188 7.02552H29.4202L31.8 0Z" fill="var(--fill-0, white)"/>
</g>
</svg>
