<svg preserveAspectRatio="none" width="100%" height="100%" overflow="visible" style="display: block;" viewBox="0 0 180 35" fill="none" xmlns="http://www.w3.org/2000/svg">
<g id="Group 460">
<path id="Star 1" d="M18 3.39423e-05L22.0413 11.9302L35.119 11.9302L24.5389 19.3034L28.5801 31.2335L18 23.8603L7.41987 31.2335L11.4611 19.3034L0.880983 11.9302L13.9587 11.9302L18 3.39423e-05Z" fill="var(--fill-0, white)" fill-opacity="0.25"/>
<path id="Star 5" d="M162 3.39423e-05L166.041 11.9302L179.119 11.9302L168.539 19.3034L172.58 31.2335L162 23.8603L151.42 31.2335L155.461 19.3034L144.881 11.9302L157.959 11.9302L162 3.39423e-05Z" fill="var(--fill-0, white)" fill-opacity="0.25"/>
<path id="Star 4" d="M126 3.39423e-05L130.041 11.9302L143.119 11.9302L132.539 19.3034L136.58 31.2335L126 23.8603L115.42 31.2335L119.461 19.3034L108.881 11.9302L121.959 11.9302L126 3.39423e-05Z" fill="var(--fill-0, white)" fill-opacity="0.25"/>
<path id="Star 3" d="M90 3.39423e-05L94.0413 11.9302L107.119 11.9302L96.5389 19.3034L100.58 31.2335L90 23.8603L79.4199 31.2335L83.4611 19.3034L72.881 11.9302L85.9587 11.9302L90 3.39423e-05Z" fill="var(--fill-0, white)" fill-opacity="0.25"/>
<path id="Star 2" d="M54 3.39423e-05L58.0413 11.9302L71.119 11.9302L60.5389 19.3034L64.5801 31.2335L54 23.8603L43.4199 31.2335L47.4611 19.3034L36.881 11.9302L49.9587 11.9302L54 3.39423e-05Z" fill="var(--fill-0, white)" fill-opacity="0.25"/>
</g>
</svg>
