<?xml version="1.0" encoding="UTF-8"?>
<svg id="Layer_1" data-name="Layer 1" xmlns="http://www.w3.org/2000/svg" viewBox="0 0 3750 563.05">
  <defs>
    <style>
      .cls-1 {
        fill: #5a7a5a;
      }

      .cls-2 {
        fill: #426042;
      }

      .cls-3 {
        fill: #335134;
      }

      .cls-4 {
        fill: #2c482e;
      }
    </style>
  </defs>
  <path class="cls-3" d="M3709.07,370.37c-178.56-34.39-352.25-90.84-535.8-98.9-303.75-13.35-593.85,106.96-897.91,114.77-301.37,7.74-597.09-95.52-897.2-72.54-287.12,21.98-563.93,158.39-846.14,111.31-114.41-19.09-217.13-67.16-326.31-100.14-66.38-20.05-135.46-34.38-205.7-42.95v119.4c107.75,32.44,214.59,75.94,327.84,91.89,301.02,42.41,601.61-113.85,904.64-80.58,124.88,13.71,239.89,58.89,363.04,79.69,417.82,70.58,835.37-146.3,1262.47-123.77,190.14,10.03,369.49,67.05,553.53,104.5,109.37,22.26,226.29,37.05,338.48,31.33v-126.64c-13.75-2.29-27.41-4.75-40.93-7.36Z"/>
  <path class="cls-1" d="M780.47,323.9c206.73-28.96,396.76-112.9,604.53-136.83,464.34-53.49,937.93,198.69,1388.75,96.07,121.79-27.73,232.53-80.1,353.67-109.54,201.93-49.06,414.1-31.28,622.58,7.75v-54.21c-15.45-1.19-30.88-2.51-46.3-3.99-381.15-36.58-758.18-163.46-1135.43-110.33-202.99,28.59-387.49,107.88-590.26,137.27-329.81,47.81-670.94-40.48-1005.48-15.77-156.46,11.56-307.81,47.63-463.82,62.07-169.98,15.73-344.23,4.61-508.71-30.97v73.29c252.76,68.15,518.92,121.82,780.47,85.18Z"/>
  <path class="cls-4" d="M3411.52,473.05c-184.04-37.45-363.38-94.47-553.53-104.5-427.1-22.53-844.65,194.35-1262.47,123.77-123.15-20.8-238.16-65.98-363.04-79.69-303.03-33.27-603.62,122.99-904.64,80.58-113.25-15.95-220.09-59.45-327.84-91.89v161.74h3750v-58.68c-112.19,5.72-229.11-9.07-338.48-31.33Z"/>
  <path class="cls-2" d="M532.01,425c282.21,47.09,559.01-89.32,846.14-111.31,300.12-22.98,595.83,80.28,897.2,72.54,304.07-7.81,594.16-128.12,897.91-114.77,183.54,8.07,357.24,64.51,535.8,98.9,13.52,2.6,27.18,5.07,40.93,7.36v-196.38c-208.49-39.03-420.65-56.81-622.58-7.75-121.14,29.43-231.88,81.81-353.67,109.54-450.81,102.63-924.4-149.55-1388.75-96.07-207.77,23.93-397.8,107.87-604.53,136.83C518.92,360.54,252.76,306.86,0,238.72v43.19c70.24,8.58,139.33,22.9,205.7,42.95,109.18,32.98,211.91,81.05,326.31,100.14Z"/>
</svg>