<?xml version="1.0" encoding="UTF-8"?>
<svg id="Layer_1" xmlns="http://www.w3.org/2000/svg" version="1.1" viewBox="0 0 3750 563">
  <!-- Generator: Adobe Illustrator 29.7.1, SVG Export Plug-In . SVG Version: 2.1.1 Build 8)  -->
  <defs>
    <style>
      .st0 {
        fill: #5a7a5a;
      }

      .st1 {
        fill: #426042;
      }

      .st2 {
        fill: #335134;
      }

      .st3 {
        fill: #2c482e;
      }
    </style>
  </defs>
  <path class="st2" d="M3709.1,375.4c-178.6-34.4-352.2-90.8-535.8-98.9-303.8-13.4-593.9,107-897.9,114.8-301.4,7.7-597.1-95.5-897.2-72.5-287.1,22-563.9,158.4-846.1,111.3-114.4-19.1-217.1-67.2-326.3-100.1C139.3,309.8,70.3,295.5,0,286.9v119.4c107.8,32.4,214.6,75.9,327.8,91.9,301,42.4,601.6-113.9,904.6-80.6,124.9,13.7,239.9,58.9,363,79.7,417.8,70.6,835.4-146.3,1262.5-123.8,190.1,10,369.5,67.1,553.5,104.5,109.4,22.3,226.3,37,338.5,31.3v-126.6c-13.8-2.3-27.4-4.8-40.9-7.4h0Z"/>
  <path class="st0" d="M780.5,339.9c206.7-29,396.8-112.9,604.5-136.8,464.3-53.5,937.9,198.7,1388.8,96.1,121.8-27.7,232.5-80.1,353.7-109.5,201.9-49.1,414.1-31.3,622.6,7.8v-54.2c-15.4-1.2-30.9-2.5-46.3-4-381.1-36.6-758.2-163.5-1135.4-110.3-203,28.6-387.5,107.9-590.3,137.3-329.8,47.8-670.9-40.5-1005.5-15.8-156.5,11.6-307.8,47.6-463.8,62.1C338.7,228.1,164.5,217,0,181.4v73.3c252.8,68.1,518.9,121.8,780.5,85.2h0Z"/>
  <path class="st3" d="M3411.5,473c-184-37.5-363.4-94.5-553.5-104.5-427.1-22.5-844.7,194.4-1262.5,123.8-123.2-20.8-238.2-66-363-79.7-303-33.3-603.6,123-904.6,80.6C214.6,477.3,107.7,433.8,0,401.3v161.7h3750v-58.7c-112.2,5.7-229.1-9.1-338.5-31.3h0Z"/>
  <path class="st1" d="M532,439c282.2,47.1,559-89.3,846.1-111.3,300.1-23,595.8,80.3,897.2,72.5,304.1-7.8,594.2-128.1,897.9-114.8,183.5,8.1,357.2,64.5,535.8,98.9,13.5,2.6,27.2,5.1,40.9,7.4v-196.4c-208.5-39-420.6-56.8-622.6-7.8-121.1,29.4-231.9,81.8-353.7,109.5-450.8,102.6-924.4-149.6-1388.8-96.1-207.8,23.9-397.8,107.9-604.5,136.8C518.9,374.5,252.8,320.9,0,252.7v43.2c70.2,8.6,139.3,22.9,205.7,43,109.2,33,211.9,81.1,326.3,100.1Z"/>
</svg>