<svg width="107" height="61" viewBox="0 0 107 61" fill="none" xmlns="http://www.w3.org/2000/svg">
<path d="M26.0629 12.2732H13.6948V15.9432H22.467C22.0324 21.0801 17.752 23.285 13.7096 23.285C12.429 23.2906 11.1601 23.0411 9.97701 22.5509C8.79391 22.0608 7.72031 21.3399 6.81888 20.4303C5.91745 19.5206 5.20626 18.4406 4.72683 17.2531C4.2474 16.0656 4.00934 14.7945 4.02654 13.514C4.02654 7.95825 8.32771 3.68079 13.7215 3.68079C17.8824 3.68079 20.3342 6.33321 20.3342 6.33321L22.9027 3.6719C22.9027 3.6719 19.6032 0 13.5871 0C5.92621 0 0 6.46558 0 13.4488C0 20.2918 5.57453 26.9648 13.7807 26.9648C20.9991 26.9648 26.2832 22.0195 26.2832 14.7073C26.2832 13.1643 26.0589 12.2732 26.0589 12.2732H26.0629Z" fill="white"/>
<path d="M36.1954 9.61476C31.1197 9.61476 27.4824 13.583 27.4824 18.2092C27.4824 22.9055 31.0091 26.9469 36.2547 26.9469C41.0024 26.9469 44.8916 23.3184 44.8916 18.31C44.8916 12.5803 40.3672 9.61377 36.1954 9.61377V9.61476ZM36.2448 13.0189C38.7401 13.0189 41.1051 15.0372 41.1051 18.2882C41.1051 21.4691 38.75 23.5456 36.2329 23.5456C33.4669 23.5456 31.2936 21.3308 31.2936 18.2625C31.2936 15.2594 33.4472 13.0189 36.2527 13.0189H36.2448Z" fill="white"/>
<path d="M55.1436 9.61476C50.068 9.61476 46.4307 13.583 46.4307 18.2092C46.4307 22.9055 49.9573 26.9469 55.2029 26.9469C59.9506 26.9469 63.8398 23.3184 63.8398 18.31C63.8398 12.5803 59.3154 9.61377 55.1436 9.61377V9.61476ZM55.193 13.0189C57.6884 13.0189 60.0533 15.0372 60.0533 18.2882C60.0533 21.4691 57.6983 23.5456 55.1812 23.5456C52.4152 23.5456 50.2419 21.3308 50.2419 18.2625C50.2419 15.2594 52.3954 13.0189 55.2009 13.0189H55.193Z" fill="white"/>
<path d="M73.7284 9.62451C69.0697 9.62451 65.4086 13.7044 65.4086 18.2841C65.4086 23.5001 69.6535 26.9596 73.6474 26.9596C76.1171 26.9596 77.431 25.9786 78.3892 24.8535V26.5625C78.3892 29.5527 76.5735 31.3437 73.8332 31.3437C71.1857 31.3437 69.858 29.3749 69.3878 28.2586L66.0567 29.6416C67.2382 32.1409 69.6169 34.7459 73.8608 34.7459C78.5038 34.7459 82.0226 31.8288 82.0226 25.7099V10.1451H78.403V11.6131C77.2867 10.4079 75.7575 9.62451 73.7304 9.62451H73.7284ZM74.0643 13.0228C76.3483 13.0228 78.6935 14.9728 78.6935 18.3029C78.6935 21.6883 76.3522 23.5534 74.0139 23.5534C71.5304 23.5534 69.2198 21.5382 69.2198 18.3345C69.2198 15.0074 71.6203 13.0228 74.0643 13.0228Z" fill="white"/>
<path d="M98.1998 9.60352C93.8058 9.60352 90.1161 13.1006 90.1161 18.2572C90.1161 23.7162 94.2286 26.9534 98.6117 26.9534C102.279 26.9534 104.539 24.948 105.873 23.1501L102.876 21.1566C102.099 22.3618 100.799 23.5423 98.6305 23.5423C96.1944 23.5423 95.0742 22.2087 94.3797 20.9146L106 16.0938L105.407 14.6811C104.285 11.9151 101.665 9.60352 98.1998 9.60352ZM98.3509 12.9366C99.9345 12.9366 101.073 13.7782 101.558 14.7878L93.7969 18.031C93.461 15.5198 95.8418 12.9366 98.3411 12.9366H98.3509Z" fill="white"/>
<path d="M84.5673 26.4402H88.3844V0.896973H84.5673V26.4402Z" fill="white"/>
<path d="M11.6 40.604L13.9798 47.6295H21.6812L15.4507 51.9715L17.8305 58.9971L11.6 54.655L5.36948 58.9971L7.74932 51.9715L1.5188 47.6295H9.22015L11.6 40.604Z" fill="white"/>
<path d="M96.4 40.604L98.7798 47.6295H106.481L100.251 51.9715L102.631 58.9971L96.4 54.655L90.1695 58.9971L92.5493 51.9715L86.3188 47.6295H94.0201L96.4 40.604Z" fill="white"/>
<path d="M75.2 40.604L77.5798 47.6295H85.2812L79.0507 51.9715L81.4305 58.9971L75.2 54.655L68.9695 58.9971L71.3493 51.9715L65.1188 47.6295H72.8201L75.2 40.604Z" fill="white"/>
<path d="M54 40.604L56.3799 47.6295H64.0812L57.8507 51.9715L60.2305 58.9971L54 54.655L47.7695 58.9971L50.1493 51.9715L43.9188 47.6295H51.6202L54 40.604Z" fill="white"/>
<path d="M32.8 40.604L35.1799 47.6295H42.8812L36.6507 51.9715L39.0305 58.9971L32.8 54.655L26.5695 58.9971L28.9493 51.9715L22.7188 47.6295H30.4202L32.8 40.604Z" fill="white"/>
</svg>
