<svg width="65" height="53" viewBox="0 0 65 53" fill="none" xmlns="http://www.w3.org/2000/svg">
<path d="M36.7939 52.545V34.065C36.7939 25.815 39.0489 18.61 43.5589 12.45C48.0689 6.17999 54.9989 2.32999 64.3489 0.899998V12.945C58.9589 13.605 55.3839 15.365 53.6239 18.225C51.8639 21.085 50.9839 24.88 50.9839 29.61L41.2489 27.63H64.0189V52.545H36.7939ZM0.988868 52.545V34.065C0.988868 25.815 3.24387 18.61 7.75387 12.45C12.2639 6.17999 19.1939 2.32999 28.5439 0.899998V12.945C23.1539 13.605 19.5789 15.365 17.8189 18.225C16.0589 21.085 15.1789 24.88 15.1789 29.61L5.44387 27.63H28.2139V52.545H0.988868Z" fill="#9C9C9C" fill-opacity="0.2"/>
</svg>
